<svg xmlns="http://www.w3.org/2000/svg" xmlns:xlink="http://www.w3.org/1999/xlink" viewBox="0,0,256,256" width="48px" height="48px" fill-rule="nonzero"><g fill="#850000" fill-rule="nonzero" stroke="none" stroke-width="1" stroke-linecap="butt" stroke-linejoin="miter" stroke-miterlimit="10" stroke-dasharray="" stroke-dashoffset="0" font-family="none" font-weight="none" font-size="none" text-anchor="none" style="mix-blend-mode: normal"><g transform="scale(9.84615,9.84615)"><path d="M19.5,12.39844c0.19922,0.30078 0.39844,0.60156 0.5,1.10156h-3.19922c0,-0.10156 0,-0.30078 0.09766,-0.5c0.10156,-0.19922 0.10156,-0.30078 0.30078,-0.5c0.10156,-0.19922 0.30078,-0.30078 0.5,-0.39844c0.19922,-0.10156 0.5,-0.20312 0.80078,-0.20312c0.39844,0.10156 0.80078,0.20313 1,0.5zM10.30078,11.69922c0.19922,-0.19922 0.39844,-0.5 0.39844,-0.89844c0,-0.19922 0,-0.40234 -0.09766,-0.60156c-0.10156,-0.09766 -0.20312,-0.30078 -0.30078,-0.30078c-0.10156,-0.09766 -0.30078,-0.09766 -0.5,-0.19922c-0.19922,0 -0.40234,0 -0.60156,0h-2v2.30078h2.19922c0.30078,0 0.60156,-0.10156 0.90234,-0.30078zM9.5,13.39844h-2.30078v2.70312h2.30078c0.19922,0 0.39844,0 0.60156,-0.10156c0.19922,0 0.39844,-0.10156 0.5,-0.19922c0.09766,-0.10156 0.29688,-0.19922 0.39844,-0.40234c0.10156,-0.19922 0.10156,-0.39844 0.10156,-0.59766c0,-0.5 -0.10156,-0.90234 -0.40234,-1.10156c-0.30078,-0.19922 -0.69922,-0.30078 -1.19922,-0.30078zM26,4.89844v16.20313c0,2.69922 -2.19922,4.89844 -4.89844,4.89844h-16.20312c-2.69922,0 -4.89844,-2.19922 -4.89844,-4.89844v-16.20312c0,-2.69922 2.19922,-4.89844 4.89844,-4.89844h16.20313c2.69922,0 4.89844,2.19922 4.89844,4.89844zM16.39844,9.60156h4v-1h-4zM13.19922,15c0,-0.60156 -0.09766,-1.10156 -0.39844,-1.60156c-0.30078,-0.39844 -0.69922,-0.69922 -1.30078,-0.89844c0.39844,-0.19922 0.80078,-0.5 1,-0.80078c0.19922,-0.30078 0.30078,-0.69922 0.30078,-1.19922c0,-0.5 -0.10156,-0.80078 -0.19922,-1.19922c-0.20312,-0.30078 -0.40234,-0.60156 -0.60156,-0.69922c-0.30078,-0.20312 -0.60156,-0.30078 -1,-0.40234c-0.5,-0.19922 -0.89844,-0.19922 -1.39844,-0.19922h-4.60156v9.80078h4.80078c0.39844,0 0.89844,-0.10156 1.30078,-0.19922c0.39844,-0.10156 0.79688,-0.30078 1.09766,-0.5c0.30078,-0.20312 0.60156,-0.5 0.80078,-0.90234c0.10156,-0.30078 0.19922,-0.69922 0.19922,-1.19922zM16.80078,14.69922h5.09766c0,-0.59766 0,-1.09766 -0.09766,-1.59766c-0.10156,-0.5 -0.30078,-1 -0.60156,-1.30078c-0.30078,-0.40234 -0.69922,-0.69922 -1.09766,-0.90234c-0.5,-0.19922 -1,-0.39844 -1.60156,-0.39844c-0.5,0 -1,0.10156 -1.5,0.30078c-0.39844,0.19922 -0.80078,0.5 -1.19922,0.80078c-0.30078,0.29688 -0.60156,0.69922 -0.69922,1.19922c-0.20312,0.5 -0.30078,1 -0.30078,1.5c0,0.5 0.09766,1.09766 0.30078,1.5c0.19922,0.5 0.39844,0.89844 0.69922,1.19922c0.30078,0.30078 0.69922,0.60156 1.09766,0.80078c0.5,0.19922 1,0.30078 1.5,0.30078c0.80078,0 1.5,-0.20312 2.10156,-0.60156c0.60156,-0.39844 1,-1 1.30078,-1.80078h-1.69922c-0.10156,0.19922 -0.20312,0.40234 -0.5,0.60156c-0.30078,0.19922 -0.60156,0.30078 -1,0.30078c-0.5,0 -1,-0.10156 -1.30078,-0.40234c-0.30078,-0.39844 -0.5,-0.89844 -0.5,-1.5z"></path></g></g></svg>