<svg xmlns="http://www.w3.org/2000/svg" xmlns:xlink="http://www.w3.org/1999/xlink" viewBox="0,0,256,256" width="48px" height="48px" fill-rule="nonzero"><g fill="none" fill-rule="nonzero" stroke="none" stroke-width="1" stroke-linecap="butt" stroke-linejoin="miter" stroke-miterlimit="10" stroke-dasharray="" stroke-dashoffset="0" font-family="none" font-weight="none" font-size="none" text-anchor="none" style="mix-blend-mode: normal"><g transform="scale(5.33333,5.33333)"><path d="M6,10c0,-2.209 1.791,-4 4,-4h28c2.209,0 4,1.791 4,4v28c0,2.209 -1.791,4 -4,4h-28c-2.209,0 -4,-1.791 -4,-4z" fill="#850000"></path><path d="M27,17h7v2h-7zM21.512,23.428c0.585,-0.285 1.903,-0.934 1.903,-2.857c0,-3.617 -3.952,-3.57 -4.683,-3.57h-6.732v14h7.025c0.585,-0.001 4.975,-0.166 4.975,-4.002c0,-2.475 -1.61,-3.285 -2.488,-3.571zM15,19.428h2.928c0.292,0 2.195,0.104 2.195,1.572c0,1.467 -1.463,1.714 -1.902,1.714h-3.221zM18.336,28.571h-3.367v-3.856h3.367c0.731,0 2.341,0.237 2.341,2c0,1.761 -2.049,1.856 -2.341,1.856zM32.438,28.395c-0.465,0.289 -0.929,0.436 -1.549,0.436c-2.326,0 -2.789,-1.961 -2.789,-2.83h7.9c0,-0.869 0,-1.511 -0.155,-2.236c-0.156,-0.725 -1.215,-3.765 -5.111,-3.765c-5.445,0 -5.734,4.778 -5.734,5.5c0,0.723 0.156,1.593 0.467,2.171c0.309,0.724 0.619,1.304 1.084,1.736c0.464,0.435 1.083,0.866 1.703,1.157c0.774,0.291 1.549,0.436 2.324,0.436c1.238,0 2.324,-0.288 3.253,-0.868c0.931,-0.579 1.55,-1.448 2.014,-2.606h-2.633c-0.155,0.29 -0.31,0.578 -0.774,0.869zM30.734,22.027c1.518,0 2.168,1.592 2.322,2.314h-4.956c0,-0.143 0.371,-2.314 2.634,-2.314z" fill="#ffffff"></path></g></g></svg>